<svg width="80" height="80" viewBox="0 0 80 80" fill="none" xmlns="http://www.w3.org/2000/svg">
<mask id="mask0_2_80" style="mask-type:alpha" maskUnits="userSpaceOnUse" x="9" y="10" width="61" height="61">
<path d="M68.2656 57C65.9688 54.7031 60.4531 51.25 57.7344 49.9531C54.5781 48.4375 53.4219 48.4687 51.1875 50.0781C49.3281 51.4219 48.125 52.6719 45.9844 52.2031C43.8438 51.75 39.625 48.5469 35.5312 44.4687C31.4375 40.375 28.25 36.1562 27.7969 34.0156C27.3438 31.8594 28.5938 30.6719 29.9219 28.8125C31.5312 26.5781 31.5781 25.4219 30.0469 22.2656C28.75 19.5312 25.3125 14.0312 23 11.7344C20.7031 9.43748 20.1875 9.93748 18.9219 10.3906C18.9219 10.3906 17.0469 11.1406 15.1875 12.375C12.8906 13.9062 11.6094 15.1875 10.7031 17.1094C9.8125 19.0312 8.78125 22.6094 14.0313 31.9531C18.2656 39.5 22.4219 45.2187 28.5938 51.375L28.6094 51.3906L28.625 51.4062C34.7969 57.5781 40.5 61.7344 48.0469 65.9687C57.3906 71.2187 60.9688 70.1875 62.8906 69.2969C64.8125 68.4062 66.0938 67.125 67.625 64.8125C68.8594 62.9531 69.6094 61.0781 69.6094 61.0781C70.0625 59.8125 70.5781 59.2969 68.2656 57Z" fill="#7AD06D"/>
</mask>
<g mask="url(#mask0_2_80)">
<ellipse cx="40.7031" cy="38.9844" rx="48.5156" ry="38.0469" fill="#7AD06D"/>
</g>
</svg>
