<svg width="59" height="59" viewBox="0 0 59 59" fill="none" xmlns="http://www.w3.org/2000/svg">
<g id="whatsapp logo" clip-path="url(#clip0_2_75)">
<g id="Group">
<path id="Vector" d="M28.0694 0.0341204C12.4876 0.776039 0.191331 13.7527 0.2386 29.3522C0.252993 34.1034 1.40002 38.5879 3.42343 42.5504L0.316771 57.6304C0.148718 58.4461 0.884427 59.1604 1.69478 58.9685L16.4715 55.4676C20.2679 57.3587 24.532 58.4509 29.0449 58.5198C44.971 58.7631 58.2506 46.1173 58.747 30.1971C59.2791 13.1317 45.1945 -0.781454 28.0694 0.0341204ZM45.7012 45.4629C41.3737 49.7903 35.62 52.1736 29.5001 52.1736C25.9166 52.1736 22.4858 51.3696 19.3027 49.784L17.2449 48.7589L8.18522 50.9053L10.0922 41.648L9.0784 39.6627C7.42595 36.4265 6.58808 32.927 6.58808 29.2616C6.58808 23.1415 8.97131 17.3879 13.2988 13.0603C17.5876 8.77148 23.4352 6.34946 29.5005 6.34946C35.6204 6.3496 41.3739 8.73282 45.7013 13.0602C50.0288 17.3876 52.412 23.1413 52.4122 29.2612C52.412 35.3266 49.99 41.1742 45.7012 45.4629Z" fill="#7AD06D"/>
<path id="Vector_2" d="M43.7012 35.6074L38.0333 33.9799C37.2881 33.766 36.4857 33.9774 35.9427 34.5307L34.5566 35.9428C33.9722 36.5383 33.0854 36.7296 32.3118 36.4167C29.6306 35.3316 23.9904 30.3168 22.5501 27.8084C22.1345 27.0848 22.2032 26.1802 22.7135 25.52L23.9236 23.9545C24.3977 23.3411 24.4977 22.5173 24.1842 21.8083L21.7995 16.4149C21.2284 15.1231 19.5776 14.7471 18.4991 15.6592C16.9172 16.9971 15.0403 19.0303 14.8121 21.2827C14.4098 25.2539 16.113 30.2599 22.5533 36.2709C29.9937 43.2153 35.9519 44.1327 39.8312 43.193C42.0316 42.66 43.79 40.5234 44.8997 38.7741C45.6563 37.5813 45.0589 35.9973 43.7012 35.6074Z" fill="#7AD06D"/>
</g>
</g>
<defs>
<clipPath id="clip0_2_75">
<rect width="59" height="59" fill="white"/>
</clipPath>
</defs>
</svg>
